<?xml version="1.0" encoding="utf-8"?>
<svg version="1.1" xmlns:xlink="http://www.w3.org/1999/xlink" width="33px" height="27px" xmlns="http://www.w3.org/2000/svg">
  <g transform="matrix(1 0 0 1 -720 -432 )">
    <path d="M 14.316650390625 17.2880859375  C 14.397216796875 17.8330078125  14.4375 18.421875  14.4375 19.0546875  C 14.4375 19.69921875  14.268310546875 20.2470703125  13.929931640625 20.6982421875  C 13.591552734375 21.1494140625  13.18603515625 21.375  12.71337890625 21.375  L 5.84912109375 21.375  C 5.37646484375 21.375  4.970947265625 21.1494140625  4.632568359375 20.6982421875  C 4.294189453125 20.2470703125  4.125 19.69921875  4.125 19.0546875  C 4.125 18.421875  4.165283203125 17.8330078125  4.245849609375 17.2880859375  C 4.326416015625 16.7431640625  4.4580078125 16.2158203125  4.640625 15.7060546875  C 4.8232421875 15.1962890625  5.09716796875 14.794921875  5.46240234375 14.501953125  C 5.82763671875 14.208984375  6.2626953125 14.0625  6.767578125 14.0625  C 7.455078125 14.8125  8.29296875 15.1875  9.28125 15.1875  C 10.26953125 15.1875  11.107421875 14.8125  11.794921875 14.0625  C 12.2998046875 14.0625  12.73486328125 14.208984375  13.10009765625 14.501953125  C 13.46533203125 14.794921875  13.7392578125 15.1962890625  13.921875 15.7060546875  C 14.1044921875 16.2158203125  14.236083984375 16.7431640625  14.316650390625 17.2880859375  Z M 11.47265625 8.859375  C 12.07421875 9.515625  12.375 10.3125  12.375 11.25  C 12.375 12.1875  12.07421875 12.984375  11.47265625 13.640625  C 10.87109375 14.296875  10.140625 14.625  9.28125 14.625  C 8.421875 14.625  7.69140625 14.296875  7.08984375 13.640625  C 6.48828125 12.984375  6.1875 12.1875  6.1875 11.25  C 6.1875 10.3125  6.48828125 9.515625  7.08984375 8.859375  C 7.69140625 8.203125  8.421875 7.875  9.28125 7.875  C 10.140625 7.875  10.87109375 8.203125  11.47265625 8.859375  Z M 28.72998046875 18.158203125  C 28.82666015625 18.263671875  28.875 18.3984375  28.875 18.5625  L 28.875 19.6875  C 28.875 19.8515625  28.82666015625 19.986328125  28.72998046875 20.091796875  C 28.63330078125 20.197265625  28.509765625 20.25  28.359375 20  L 17.015625 20  C 16.865234375 20.25  16.74169921875 20.197265625  16.64501953125 20.091796875  C 16.54833984375 19.986328125  16.5 19.8515625  16.5 19.6875  L 16.5 18.5625  C 16.5 18.3984375  16.54833984375 18.263671875  16.64501953125 18.158203125  C 16.74169921875 18.052734375  16.865234375 18  17.015625 18  L 28.359375 18  C 28.509765625 18  28.63330078125 18.052734375  28.72998046875 18.158203125  Z M 22.54248046875 13.658203125  C 22.63916015625 13.763671875  22.6875 13.8984375  22.6875 14.0625  L 22.6875 15.1875  C 22.6875 15.3515625  22.63916015625 15.486328125  22.54248046875 15.591796875  C 22.44580078125 15.697265625  22.322265625 15.75  22.171875 15.75  L 17.015625 15.75  C 16.865234375 15.75  16.74169921875 15.697265625  16.64501953125 15.591796875  C 16.54833984375 15.486328125  16.5 15.3515625  16.5 15.1875  L 16.5 14.0625  C 16.5 13.8984375  16.54833984375 13.763671875  16.64501953125 13.658203125  C 16.74169921875 13.552734375  16.865234375 13.5  17.015625 13.5  L 22.171875 13.5  C 22.322265625 13.5  22.44580078125 13.552734375  22.54248046875 13.658203125  Z M 28.72998046875 13.658203125  C 28.82666015625 13.763671875  28.875 13.8984375  28.875 14.0625  L 28.875 15.1875  C 28.875 15.3515625  28.82666015625 15.486328125  28.72998046875 15.591796875  C 28.63330078125 15.697265625  28.509765625 15.75  28.359375 15.75  L 25.265625 15.75  C 25.115234375 15.75  24.99169921875 15.697265625  24.89501953125 15.591796875  C 24.79833984375 15.486328125  24.75 15.3515625  24.75 15.1875  L 24.75 14.0625  C 24.75 13.8984375  24.79833984375 13.763671875  24.89501953125 13.658203125  C 24.99169921875 13.552734375  25.115234375 13.5  25.265625 13.5  L 28.359375 13.5  C 28.509765625 13.5  28.63330078125 13.552734375  28.72998046875 13.658203125  Z M 28.72998046875 9.158203125  C 28.82666015625 9.263671875  28.875 9.3984375  28.875 9.5625  L 28.875 10.6875  C 28.875 10.8515625  28.82666015625 10.986328125  28.72998046875 11.091796875  C 28.63330078125 11.197265625  28.509765625 11.25  28.359375 11.25  L 17.015625 11.25  C 16.865234375 11.25  16.74169921875 11.197265625  16.64501953125 11.091796875  C 16.54833984375 10.986328125  16.5 10.8515625  16.5 10.6875  L 16.5 9.5625  C 16.5 9.3984375  16.54833984375 9.263671875  16.64501953125 9.158203125  C 16.74169921875 9.052734375  16.865234375 9  17.015625 9  L 28.359375 9  C 28.509765625 9  28.63330078125 9.052734375  28.72998046875 9.158203125  Z M 30.784423828125 24.5830078125  C 30.886474609375 24.4716796875  30.9375 24.33984375  31 24.1875  L 31 5  L 2 5  L 2 24.1875  C 2.0625 24.33984375  2.113525390625 24.4716796875  2.215576171875 24.5830078125  C 2.317626953125 24.6943359375  2.4384765625 24.75  2.578125 24.75  L 30.421875 24.75  C 30.5615234375 24.75  30.682373046875 24.6943359375  30.784423828125 24.5830078125  Z M 32.24267578125 0.826171875000001  C 32.74755859375 1.376953125  33 2.0390625  33 2.8125  L 33 24.1875  C 33 24.9609375  32.74755859375 25.623046875  32.24267578125 26.173828125  C 31.73779296875 26.724609375  31.130859375 27  30.421875 27  L 2.578125 27  C 1.869140625 27  1.26220703125 26.724609375  0.75732421875 26.173828125  C 0.25244140625 25.623046875  0 24.9609375  0 24.1875  L 0 2.8125  C 0 2.0390625  0.25244140625 1.376953125  0.75732421875 0.826171875000001  C 1.26220703125 0.275390624999997  1.869140625 0  2.578125 0  L 30.421875 0  C 31.130859375 0  31.73779296875 0.275390624999997  32.24267578125 0.826171875000001  Z " fill-rule="nonzero" fill="#7f7f7f" stroke="none" transform="matrix(1 0 0 1 720 432 )" />
  </g>
</svg>