<?xml version="1.0" encoding="utf-8"?>
<svg version="1.1" xmlns:xlink="http://www.w3.org/1999/xlink" width="50px" height="20px" xmlns="http://www.w3.org/2000/svg">
  <defs>
    <mask fill="white" id="clip2">
      <path d="M 0 20  L 0 0  L 33.0833333333303 0  L 50 0  L 50 20  L 30.5833333333303 20  L 0 20  Z " fill-rule="evenodd" />
    </mask>
  </defs>
  <g transform="matrix(1 0 0 1 -1079 -285 )">
    <path d="M 0 20  L 0 0  L 33.0833333333303 0  L 50 0  L 50 20  L 30.5833333333303 20  L 0 20  Z " fill-rule="nonzero" fill="#ffffff" stroke="none" fill-opacity="0" transform="matrix(1 0 0 1 1079 285 )" />
    <path d="M 0 20  L 0 0  L 33.0833333333303 0  L 50 0  L 50 20  L 30.5833333333303 20  L 0 20  Z " stroke-width="2" stroke="#f56c6c" fill="none" transform="matrix(1 0 0 1 1079 285 )" mask="url(#clip2)" />
  </g>
</svg>