<?xml version="1.0" encoding="utf-8"?>
<svg version="1.1" xmlns:xlink="http://www.w3.org/1999/xlink" width="80px" height="30px" xmlns="http://www.w3.org/2000/svg">
  <g transform="matrix(1 0 0 1 -599 -98 )">
    <path d="M 599.5 113  A 14.5 14.5 0 0 1 614 98.5 L 664 98.5  A 14.5 14.5 0 0 1 678.5 113 A 14.5 14.5 0 0 1 664 127.5 L 614 127.5  A 14.5 14.5 0 0 1 599.5 113 Z " fill-rule="nonzero" fill="#19be6b" stroke="none" />
    <path d="M 599.5 113  A 14.5 14.5 0 0 1 614 98.5 L 664 98.5  A 14.5 14.5 0 0 1 678.5 113 A 14.5 14.5 0 0 1 664 127.5 L 614 127.5  A 14.5 14.5 0 0 1 599.5 113 Z " stroke-width="1" stroke="#19be6b" fill="none" />
  </g>
</svg>