<?xml version="1.0" encoding="utf-8"?>
<svg version="1.1" xmlns:xlink="http://www.w3.org/1999/xlink" width="80px" height="30px" xmlns="http://www.w3.org/2000/svg">
  <g transform="matrix(1 0 0 1 -795 -750 )">
    <path d="M 795.5 753  A 2.5 2.5 0 0 1 798 750.5 L 872 750.5  A 2.5 2.5 0 0 1 874.5 753 L 874.5 777  A 2.5 2.5 0 0 1 872 779.5 L 798 779.5  A 2.5 2.5 0 0 1 795.5 777 L 795.5 753  Z " fill-rule="nonzero" fill="#f0f7ff" stroke="none" />
    <path d="M 795.5 753  A 2.5 2.5 0 0 1 798 750.5 L 872 750.5  A 2.5 2.5 0 0 1 874.5 753 L 874.5 777  A 2.5 2.5 0 0 1 872 779.5 L 798 779.5  A 2.5 2.5 0 0 1 795.5 777 L 795.5 753  Z " stroke-width="1" stroke="#409eff" fill="none" />
  </g>
</svg>