<?xml version="1.0" encoding="utf-8"?>
<svg version="1.1" xmlns:xlink="http://www.w3.org/1999/xlink" width="25px" height="25px" xmlns="http://www.w3.org/2000/svg">
  <g transform="matrix(1 0 0 1 -868 -173 )">
    <path d="M 14.8033126293996 11.9238476953908  C 14.975845410628 12.0908483633935  15.0621118012422 12.2828991315965  15.0621118012422 12.5  C 15.0621118012422 12.7171008684035  14.975845410628 12.9091516366065  14.8033126293996 13.0761523046092  L 2.74327122153209 24.749498997996  C 2.57073844030366 24.9164996659987  2.37232574189096 25  2.148033126294 25  C 1.92374051069703 25  1.72532781228433 24.9164996659987  1.5527950310559 24.749498997996  L 0.25879917184265 23.496993987976  C 0.0862663906142168 23.3299933199733  0 23.1379425517702  0 22.9208416833667  C 0 22.7037408149633  0.0862663906142168 22.5116900467602  0.25879917184265 22.3446893787575  L 10.4296066252588 12.5  L 0.25879917184265 2.65531062124249  C 0.0862663906142168 2.48830995323981  0 2.29625918503674  0 2.07915831663327  C 0 1.86205744822979  0.0862663906142168 1.67000668002672  0.25879917184265 1.50300601202405  L 1.5527950310559 0.250501002004008  C 1.72532781228433 0.0835003340013352  1.92374051069703 0  2.148033126294 0  C 2.37232574189096 0  2.57073844030366 0.0835003340013352  2.74327122153209 0.250501002004008  L 14.8033126293996 11.9238476953908  Z M 24.7412008281574 11.9238476953908  C 24.9137336093858 12.0908483633935  25 12.2828991315965  25 12.5  C 25 12.7171008684035  24.9137336093858 12.9091516366065  24.7412008281574 13.0761523046092  L 12.6811594202899 24.749498997996  C 12.5086266390614 24.9164996659987  12.3102139406487 25  12.0859213250518 25  C 11.8616287094548 25  11.6632160110421 24.9164996659987  11.4906832298137 24.749498997996  L 10.1966873706004 23.496993987976  C 10.024154589372 23.3299933199733  9.93788819875776 23.1379425517702  9.93788819875776 22.9208416833667  C 9.93788819875776 22.7037408149633  10.024154589372 22.5116900467602  10.1966873706004 22.3446893787575  L 20.3674948240166 12.5  L 10.1966873706004 2.65531062124249  C 10.024154589372 2.48830995323981  9.93788819875776 2.29625918503674  9.93788819875776 2.07915831663327  C 9.93788819875776 1.86205744822979  10.024154589372 1.67000668002672  10.1966873706004 1.50300601202405  L 11.4906832298137 0.250501002004008  C 11.6632160110421 0.0835003340013352  11.8616287094548 0  12.0859213250518 0  C 12.3102139406487 0  12.5086266390614 0.0835003340013352  12.6811594202899 0.250501002004008  L 24.7412008281574 11.9238476953908  Z " fill-rule="nonzero" fill="#000000" stroke="none" transform="matrix(1 0 0 1 868 173 )" />
  </g>
</svg>