<?xml version="1.0" encoding="utf-8"?>
<svg version="1.1" xmlns:xlink="http://www.w3.org/1999/xlink" width="25px" height="25px" xmlns="http://www.w3.org/2000/svg">
  <g transform="matrix(1 0 0 1 -593 -173 )">
    <path d="M 14.8033126293996 22.3446893787575  C 14.975845410628 22.5116900467602  15.0621118012422 22.7037408149633  15.0621118012422 22.9208416833667  C 15.0621118012422 23.1379425517702  14.975845410628 23.3299933199733  14.8033126293996 23.496993987976  L 13.5093167701863 24.749498997996  C 13.3367839889579 24.9164996659987  13.1383712905452 25  12.9140786749482 25  C 12.6897860593513 25  12.4913733609386 24.9164996659987  12.3188405797101 24.749498997996  L 0.25879917184265 13.0761523046092  C 0.0862663906142168 12.9091516366065  0 12.7171008684035  0 12.5  C 0 12.2828991315965  0.0862663906142168 12.0908483633935  0.25879917184265 11.9238476953908  L 12.3188405797101 0.250501002004008  C 12.4913733609386 0.0835003340013352  12.6897860593513 0  12.9140786749482 0  C 13.1383712905452 0  13.3367839889579 0.0835003340013352  13.5093167701863 0.250501002004008  L 14.8033126293996 1.50300601202405  C 14.975845410628 1.67000668002672  15.0621118012422 1.86205744822979  15.0621118012422 2.07915831663327  C 15.0621118012422 2.29625918503674  14.975845410628 2.48830995323981  14.8033126293996 2.65531062124249  L 4.63250517598344 12.5  L 14.8033126293996 22.3446893787575  Z M 24.7412008281574 22.3446893787575  C 24.9137336093858 22.5116900467602  25 22.7037408149633  25 22.9208416833667  C 25 23.1379425517702  24.9137336093858 23.3299933199733  24.7412008281574 23.496993987976  L 23.4472049689441 24.749498997996  C 23.2746721877157 24.9164996659987  23.076259489303 25  22.851966873706 25  C 22.627674258109 25  22.4292615596963 24.9164996659987  22.2567287784679 24.749498997996  L 10.1966873706004 13.0761523046092  C 10.024154589372 12.9091516366065  9.93788819875777 12.7171008684035  9.93788819875776 12.5  C 9.93788819875777 12.2828991315965  10.024154589372 12.0908483633935  10.1966873706004 11.9238476953908  L 22.2567287784679 0.250501002004008  C 22.4292615596963 0.0835003340013352  22.627674258109 0  22.851966873706 0  C 23.076259489303 0  23.2746721877157 0.0835003340013352  23.4472049689441 0.250501002004008  L 24.7412008281574 1.50300601202405  C 24.9137336093858 1.67000668002672  25 1.86205744822979  25 2.07915831663327  C 25 2.29625918503674  24.9137336093858 2.48830995323981  24.7412008281574 2.65531062124249  L 14.5703933747412 12.5  L 24.7412008281574 22.3446893787575  Z " fill-rule="nonzero" fill="#000000" stroke="none" transform="matrix(1 0 0 1 593 173 )" />
  </g>
</svg>