<?xml version="1.0" encoding="utf-8"?>
<svg version="1.1" xmlns:xlink="http://www.w3.org/1999/xlink" width="13px" height="15px" xmlns="http://www.w3.org/2000/svg">
  <g transform="matrix(1 0 0 1 -1312 -503 )">
    <path d="M 6.06278026905839 11.25  L 6.47085201793718 11.25  L 7.31614349775782 10.0142045454546  L 6.20852017937226 8.39488636363634  L 5.36322869955162 9.63068181818183  L 5.36322869955162 10.2272727272727  L 6.06278026905839 10.2272727272727  L 6.06278026905839 11.25  Z M 9.66984304932742 3.93110795454545  C 9.75242899850513 3.81036931818183  9.75485799701051 3.69318181818183  9.67713004484307 3.57954545454545  C 9.59940209267562 3.46590909090911  9.51924514200304 3.46946022727272  9.43665919282508 3.59019886363638  L 6.88621076233186 7.31889204545455  C 6.80362481315389 7.43963068181817  6.80119581464877 7.55681818181817  6.87892376681621 7.67045454545455  C 6.95665171898366 7.78409090909089  7.03680866965624 7.78053977272728  7.1193946188342 7.65980113636366  L 9.66984304932742 3.93110795454545  Z M 10.1143497757847 9.59872159090911  C 10.2115097159939 9.65553977272728  10.2600896860985 9.75852272727272  10.2600896860985 9.90767045454545  L 10.2600896860985 11.9318181818182  C 10.2600896860985 12.7769886363636  10.0548393124066 13.4996448863637  9.64433856502242 14.0997869318182  C 9.23383781763825 14.6999289772727  8.73953662182369 15  8.16143497757847 15  L 2.09865470852007 15  C 1.52055306427511 15  1.02625186846029 14.6999289772727  0.615751121076123 14.0997869318182  C 0.205250373691955 13.4996448863637  0 12.7769886363636  0 11.9318181818182  L 0 3.06818181818183  C 0 2.22301136363634  0.205250373691955 1.50035511363638  0.615751121076123 0.900213068181829  C 1.02625186846029 0.300071022727276  1.52055306427511 0  2.09865470852007 0  L 8.16143497757847 0  C 8.46748878923775 0  8.75168161434984 0.0887784090908943  9.01401345291475 0.266335227272724  C 9.08688340807169 0.316051136363618  9.1306053811658 0.397727272727276  9.14517937219734 0.511363636363618  C 9.15975336322863 0.632102272727276  9.1378923766817 0.735085227272724  9.07959641255605 0.8203125  L 8.72253363228702 1.34232954545455  C 8.6545216741406 1.44176136363638  8.57679372197315 1.47017045454545  8.48934977578467 1.42755681818183  C 8.37761584454414 1.38494318181817  8.26831091180874 1.36363636363638  8.16143497757847 1.36363636363638  L 6.98969936519465 1.36363636363638  L 2.09865470852007 1.36363636363638  C 1.77802690582951 1.36363636363638  1.50355007473844 1.53053977272728  1.27522421524661 1.86434659090911  C 1.04689835575478 2.19815340909089  0.932735426008865 2.59943181818183  0.932735426008865 3.06818181818183  L 0.932735426008865 11.9318181818182  C 0.932735426008865 12.4005681818182  1.04689835575478 12.8018465909091  1.27522421524661 13.1356534090909  C 1.50355007473844 13.4694602272727  1.77802690582951 13.6363636363636  2.09865470852007 13.6363636363636  L 8.16143497757847 13.6363636363636  C 8.48206278026903 13.6363636363636  8.75653961136036 13.4694602272727  8.98486547085193 13.1356534090909  C 9.21319133034376 12.8018465909091  9.32735426008968 12.4005681818182  9.32735426008968 11.9318181818182  L 9.32735426008968 10.5894886363637  C 9.32735426008968 10.4971590909091  9.34921524663686 10.4190340909091  9.39293721973097 10.3551136363637  L 9.8593049327354 9.67329545454545  C 9.93217488789234 9.56676136363634  10.0171898355754 9.54190340909089  10.1143497757847 9.59872159090911  Z M 4.66367713004484 9.20454545454545  L 9.56053811659202 2.04545454545455  L 11.6591928251121 5.11363636363638  L 6.76233183856491 12.2727272727273  L 4.66367713004484 12.2727272727273  L 4.66367713004484 9.20454545454545  Z M 13 2.72727272727272  C 13 3.01136363636362  12.9319880418536 3.25284090909089  12.7959641255605 3.45170454545455  L 12.1255605381165 4.43181818181817  L 10.0269058295965 1.36363636363638  L 10.6973094170404 0.383522727272724  C 10.8333333333332 0.184659090909106  10.9985052316892 0.0852272727272764  11.1928251121077 0.0852272727272764  C 11.3871449925262 0.0852272727272764  11.5523168908818 0.184659090909106  11.6883408071749 0.383522727272724  L 12.7959641255605 2.00284090909089  C 12.9319880418536 2.20170454545455  13 2.44318181818183  13 2.72727272727272  Z " fill-rule="nonzero" fill="#555555" stroke="none" transform="matrix(1 0 0 1 1312 503 )" />
  </g>
</svg>