<?xml version="1.0" encoding="utf-8"?>
<svg version="1.1" xmlns:xlink="http://www.w3.org/1999/xlink" width="36px" height="32px" xmlns="http://www.w3.org/2000/svg">
  <g transform="matrix(1 0 0 1 -2785 -406 )">
    <path d="M 29.671875 13.5625  C 29.953125 13.3125  30.09375 13  30.09375 12.625  C 30.09375 12.2361111111111  29.953125 11.9166666666667  29.671875 11.6666666666667  L 27.5390625 9.79166666666667  C 27.2421875 9.52777777777778  26.890625 9.39583333333333  26.484375 9.39583333333333  C 26.078125 9.39583333333333  25.7265625 9.52777777777778  25.4296875 9.79166666666667  L 15.8671875 18.2708333333333  L 10.5703125 13.5625  C 10.2734375 13.2986111111111  9.921875 13.1666666666667  9.515625 13.1666666666667  C 9.109375 13.1666666666667  8.7578125 13.2986111111111  8.4609375 13.5625  L 6.328125 15.4375  C 6.046875 15.6875  5.90625 16.0069444444444  5.90625 16.3958333333333  C 5.90625 16.7708333333333  6.046875 17.0833333333333  6.328125 17.3333333333333  L 14.8125 24.875  C 15.109375 25.1388888888889  15.4609375 25.2708333333333  15.8671875 25.2708333333333  C 16.2890625 25.2708333333333  16.6484375 25.1388888888889  16.9453125 24.875  L 29.671875 13.5625  Z M 33.5859375 7.96875  C 35.1953125 10.4201388888889  36 13.0972222222222  36 16  C 36 18.9027777777778  35.1953125 21.5798611111111  33.5859375 24.03125  C 31.9765625 26.4826388888889  29.79296875 28.4236111111111  27.03515625 29.8541666666667  C 24.27734375 31.2847222222222  21.265625 32  18 32  C 14.734375 32  11.72265625 31.2847222222222  8.96484375 29.8541666666667  C 6.20703125 28.4236111111111  4.0234375 26.4826388888889  2.4140625 24.03125  C 0.8046875 21.5798611111111  0 18.9027777777778  0 16  C 0 13.0972222222222  0.8046875 10.4201388888889  2.4140625 7.96875  C 4.0234375 5.51736111111111  6.20703125 3.57638888888889  8.96484375 2.14583333333333  C 11.72265625 0.715277777777775  14.734375 0  18 0  C 21.265625 0  24.27734375 0.715277777777775  27.03515625 2.14583333333333  C 29.79296875 3.57638888888889  31.9765625 5.51736111111111  33.5859375 7.96875  Z " fill-rule="nonzero" fill="#95f204" stroke="none" transform="matrix(1 0 0 1 2785 406 )" />
  </g>
</svg>